<?xml version="1.0" encoding="utf-8"?>
<!-- Generator: Adobe Illustrator 19.2.1, SVG Export Plug-In . SVG Version: 6.00 Build 0)  -->
<svg version="1.1" id="Capa_1" xmlns="http://www.w3.org/2000/svg" xmlns:xlink="http://www.w3.org/1999/xlink" x="0px" y="0px"
	 viewBox="0 0 314.5 314.5" style="enable-background:new 0 0 314.5 314.5;" xml:space="preserve">
<style type="text/css">
	.st0{fill:#666666;}
</style>
<g>
	<g>
		<path class="st0" d="M274.3,182.1c0,4.5-1.5,9.7-5.2,13.4l-99,99c-3.7,3.7-7.4,5.2-12.7,5.2s-8.9-1.5-12.7-5.2l-99-99
			c-7.4-7.4-7.4-18.6,0-26s17.9-7.4,25.3,0l86.3,86.3l86.3-86.3c7.4-7.4,17.9-7.4,25.3,0C272.8,173.2,274.3,177.7,274.3,182.1z"/>
	</g>
</g>
<g>
	<g>
		<path class="st0" d="M269.1,145c-7.4,7.4-17.9,7.4-25.3,0l-86.3-86.3L71.1,145c-7.4,7.4-17.9,7.4-25.3,0s-7.4-18.6,0-26l99-99
			c3.7-3.7,7.4-5.2,12.7-5.2s8.9,1.5,12.7,5.2l99,99c3.7,3.7,5.2,8.9,5.2,13.4C274.3,136.8,272.8,141.3,269.1,145z"/>
	</g>
</g>
</svg>
